<svg id="_002-twitter" data-name="002-twitter" xmlns="http://www.w3.org/2000/svg" width="46.343" height="46.343" viewBox="0 0 46.343 46.343">
  <circle id="Ellipse_16" data-name="Ellipse 16" cx="23.172" cy="23.172" r="23.172" transform="translate(0 0)" fill="#fff"/>
  <g id="Group_39" data-name="Group 39" transform="translate(10.402 14.085)">
    <path id="Path_17" data-name="Path 17" d="M52.037,36.619a11.025,11.025,0,0,1-3.174.869,5.541,5.541,0,0,0,2.43-3.057,11.062,11.062,0,0,1-3.509,1.341,5.53,5.53,0,0,0-9.416,5.041,15.686,15.686,0,0,1-11.39-5.774,5.532,5.532,0,0,0,1.71,7.378,5.487,5.487,0,0,1-2.5-.692c0,.023,0,.047,0,.07a5.529,5.529,0,0,0,4.433,5.418,5.548,5.548,0,0,1-2.5.1,5.532,5.532,0,0,0,5.162,3.837A11.155,11.155,0,0,1,25.1,53.434,15.715,15.715,0,0,0,49.3,40.194c0-.239-.005-.478-.016-.715a11.206,11.206,0,0,0,2.758-2.86Z" transform="translate(-25.103 -34.028)" fill="#4b5ca7"/>
  </g>
</svg>
