<svg xmlns="http://www.w3.org/2000/svg" width="47" height="46" viewBox="0 0 47 46">
  <g id="_004-google-plus" data-name="004-google-plus" transform="translate(0.493)">
    <g id="Group_40" data-name="Group 40" transform="translate(0 0)">
      <ellipse id="XMLID_30_" cx="23.5" cy="23" rx="23.5" ry="23" transform="translate(-0.493)" fill="#fff"/>
    </g>
    <g id="Group_42" data-name="Group 42" transform="translate(7.64 14.356)">
      <path id="Path_21" data-name="Path 21" d="M19.523,45.293a9.828,9.828,0,0,0,6.629,9.3c3.662,1.23,8.165.31,10.6-2.826A11.115,11.115,0,0,0,38.744,43.9c-3.136-.028-6.272-.019-9.4-.014-.005,1.117,0,2.23,0,3.347,1.878.052,3.756.028,5.634.066a5.433,5.433,0,0,1-3.193,3.723A6.211,6.211,0,1,1,27.6,39.335c2.014-.709,4.089.089,5.813,1.136.873-.817,1.69-1.69,2.493-2.573a9.885,9.885,0,0,0-16.386,7.394Z" transform="translate(-19.517 -35.445)" fill="#dc4e41"/>
      <path id="Path_22" data-name="Path 22" d="M75.273,48.668c-.009.934-.019,1.874-.024,2.808-.939.009-1.873.014-2.808.019v2.8c.934,0,1.874.009,2.808.019.009.934.009,1.868.019,2.808.93,0,1.864,0,2.8,0,.005-.939.009-1.873.019-2.812l2.808-.014v-2.8c-.934,0-1.873-.009-2.808-.019-.005-.934-.014-1.874-.019-2.808Z" transform="translate(-49.942 -43.047)" fill="#dc4e41"/>
      <g id="Group_41" data-name="Group 41">
        <path id="Path_23" data-name="Path 23" d="M19.523,45.292A9.885,9.885,0,0,1,35.908,37.9c-.8.883-1.62,1.756-2.493,2.573-1.723-1.047-3.8-1.845-5.813-1.136A6.211,6.211,0,1,0,31.786,51.02,5.434,5.434,0,0,0,34.979,47.3c-1.878-.037-3.756-.014-5.634-.066,0-1.117-.009-2.23,0-3.347,3.131,0,6.268-.014,9.4.014a11.112,11.112,0,0,1-1.991,7.864c-2.437,3.136-6.939,4.057-10.6,2.826A9.828,9.828,0,0,1,19.523,45.292Z" transform="translate(-19.517 -35.445)" fill="#4b5ca7"/>
        <path id="Path_24" data-name="Path 24" d="M75.273,48.668h2.793c.005.934.014,1.874.019,2.808.934.009,1.873.014,2.808.019v2.8l-2.808.014c-.009.939-.014,1.873-.019,2.812-.934,0-1.869,0-2.8,0-.009-.939-.009-1.873-.019-2.808-.934-.01-1.873-.014-2.808-.019v-2.8q1.4-.007,2.808-.019C75.254,50.542,75.264,49.6,75.273,48.668Z" transform="translate(-49.942 -43.047)" fill="#4b5ca7"/>
      </g>
    </g>
  </g>
</svg>
