<svg xmlns="http://www.w3.org/2000/svg" width="115.88" height="57.48" viewBox="0 0 115.88 57.48">
  <g id="Path_6570" data-name="Path 6570" transform="translate(-3.86 55.42)" fill="none">
    <path d="M36.24-53.92c-19.6,0-23.44.72-27.04,4.88-3.12,3.6-3.84,7.76-3.84,22.32C5.36-12.08,6.08-8,9.2-4.32,12.8-.16,16.56.56,36.24.56,56,.56,59.76-.16,63.36-4.32c3.12-3.6,3.84-7.84,3.84-21.84,0-15.2-.64-19.2-3.84-22.88C59.76-53.2,56-53.92,36.24-53.92ZM34.4-48.48c18.8,0,21.44.4,23.92,3.36,2.08,2.48,2.56,5.84,2.56,18.64,0,12.32-.48,15.84-2.56,18.24C55.84-5.28,53.2-4.88,34.4-4.88c-13.92,0-17.92-.64-20.16-3.36-2-2.48-2.56-6.24-2.56-18.48,0-12.16.56-15.92,2.56-18.4C16.48-47.84,20.48-48.48,34.4-48.48ZM91.36-31.84,112.08-48.8V0h6.16V-53.36h-8.56L87.6-36Z" stroke="none"/>
    <path d="M 36.23999786376953 -53.92000198364258 C 16.63999938964844 -53.92000198364258 12.79999542236328 -53.20000076293945 9.199996948242188 -49.04000091552734 C 6.080001831054688 -45.44000244140625 5.360000610351562 -41.27999877929688 5.360000610351562 -26.72000122070312 C 5.360000610351562 -12.08000183105469 6.080001831054688 -8 9.199996948242188 -4.319999694824219 C 12.79999542236328 -0.1599998474121094 16.55999755859375 0.5600013732910156 36.23999786376953 0.5600013732910156 C 56 0.5600013732910156 59.7599983215332 -0.1599998474121094 63.36000061035156 -4.319999694824219 C 66.47999572753906 -7.920001983642578 67.19999694824219 -12.15999984741211 67.19999694824219 -26.15999984741211 C 67.19999694824219 -41.36000061035156 66.55999755859375 -45.36000061035156 63.36000061035156 -49.04000091552734 C 59.7599983215332 -53.20000076293945 56 -53.92000198364258 36.23999786376953 -53.92000198364258 M 34.40000152587891 -4.880001068115234 C 20.47999572753906 -4.880001068115234 16.47999572753906 -5.520000457763672 14.23999786376953 -8.240001678466797 C 12.23999786376953 -10.72000122070312 11.68000030517578 -14.47999954223633 11.68000030517578 -26.72000122070312 C 11.68000030517578 -38.88000106811523 12.23999786376953 -42.63999938964844 14.23999786376953 -45.11999893188477 C 16.47999572753906 -47.84000015258789 20.47999572753906 -48.47999954223633 34.40000152587891 -48.47999954223633 C 53.19999694824219 -48.47999954223633 55.83999633789062 -48.08000183105469 58.31999969482422 -45.11999893188477 C 60.39999771118164 -42.63999938964844 60.88000106811523 -39.27999877929688 60.88000106811523 -26.47999954223633 C 60.88000106811523 -14.15999984741211 60.39999771118164 -10.63999938964844 58.31999969482422 -8.240001678466797 C 55.83999633789062 -5.279998779296875 53.19999694824219 -4.880001068115234 34.40000152587891 -4.880001068115234 M 109.6799850463867 -53.36000061035156 L 87.59999847412109 -36 L 91.36000061035156 -31.84000015258789 L 112.0800018310547 -48.79999923706055 L 112.0800018310547 0 L 118.2399978637695 0 L 118.2399978637695 -53.36000061035156 L 109.6799850463867 -53.36000061035156 M 36.23999786376953 -55.42000198364258 C 45.67819976806641 -55.42000198364258 51.95807647705078 -55.27206039428711 56.12766265869141 -54.51592254638672 C 60.5499382019043 -53.71395492553711 62.60761642456055 -52.20167541503906 64.49424743652344 -50.02156829833984 C 66.38819885253906 -47.84354019165039 67.39286041259766 -45.5670166015625 67.95957946777344 -42.16659927368164 C 68.5740966796875 -38.4796142578125 68.69999694824219 -33.10123062133789 68.69999694824219 -26.15999984741211 C 68.69999694824219 -18.58794021606445 68.47621154785156 -14.21943283081055 67.92758178710938 -11.08164596557617 C 67.33924865722656 -7.716739654541016 66.34432220458984 -5.473136901855469 64.49353790283203 -3.337600708007812 C 62.60761642456055 -1.1583251953125 60.5499382019043 0.3539543151855469 56.12766265869141 1.155921936035156 C 51.95807647705078 1.912059783935547 45.67819976806641 2.060001373291016 36.23999786376953 2.060001373291016 C 26.83795166015625 2.060001373291016 20.58100128173828 1.912044525146484 16.42167663574219 1.155799865722656 C 12.0076904296875 0.3532600402832031 9.951934814453125 -1.158832550048828 8.065750122070312 -3.338432312011719 L 8.055862426757812 -3.349967956542969 C 6.201950073242188 -5.536632537841797 5.209922790527344 -7.798030853271484 4.631752014160156 -11.15544509887695 C 4.076385498046875 -14.38052368164062 3.860000610351562 -18.74441528320312 3.860000610351562 -26.72000122070312 C 3.860000610351562 -34.66680145263672 4.076385498046875 -39.01947784423828 4.631752014160156 -42.24455261230469 C 5.214042663574219 -45.62595367431641 6.209152221679688 -47.87933731079102 8.066459655761719 -50.02239990234375 C 10.29071044921875 -52.59263229370117 12.563720703125 -53.81073760986328 16.45233917236328 -54.51592254638672 C 20.62192535400391 -55.27206039428711 26.86513519287109 -55.42000198364258 36.23999786376953 -55.42000198364258 Z M 34.40000152587891 -6.380001068115234 C 53.16998291015625 -6.380001068115234 55.19235229492188 -6.842647552490234 57.17021179199219 -9.203323364257812 L 57.18646240234375 -9.222400665283203 C 57.94627380371094 -10.0991096496582 58.52750396728516 -11.22115325927734 58.89443206787109 -13.84753799438477 C 59.23931884765625 -16.31624603271484 59.37999725341797 -19.97612380981445 59.37999725341797 -26.47999954223633 C 59.37999725341797 -33.20524597167969 59.23922729492188 -36.96715545654297 58.89411926269531 -39.46467590332031 C 58.5321044921875 -42.08450698852539 57.94335174560547 -43.23486328125 57.17070770263672 -44.15607833862305 C 55.19235229492188 -46.51735305786133 53.16998291015625 -46.97999954223633 34.40000152587891 -46.97999954223633 C 21.15765380859375 -46.97999954223633 17.24570465087891 -46.40257263183594 15.4029541015625 -44.17258834838867 C 14.51856994628906 -43.07316207885742 14.02362060546875 -41.67242050170898 13.69535064697266 -39.34087753295898 C 13.33412170410156 -36.77523040771484 13.18000030517578 -33.00077056884766 13.18000030517578 -26.72000122070312 C 13.18000030517578 -20.39942932128906 13.33415222167969 -16.60380172729492 13.69545745849609 -14.02838516235352 C 14.02341461181641 -11.69055938720703 14.51834106445312 -10.28712844848633 15.4029541015625 -9.187416076660156 C 17.24570465087891 -6.957431793212891 21.15765380859375 -6.380001068115234 34.40000152587891 -6.380001068115234 Z M 109.1609191894531 -54.86000061035156 L 119.7399978637695 -54.86000061035156 L 119.7399978637695 1.5 L 110.5800018310547 1.5 L 110.5800018310547 -45.63376617431641 L 91.20489501953125 -29.77461624145508 L 85.40985107421875 -36.18613815307617 L 109.1609191894531 -54.86000061035156 Z" stroke="none" fill="#000"/>
  </g>
</svg>
