<svg xmlns="http://www.w3.org/2000/svg" width="136.6" height="57.48" viewBox="0 0 136.6 57.48">
  <g id="_02" data-name="02" transform="translate(-3.86 55.42)" fill="none">
    <path d="M36.24-53.92c-19.6,0-23.44.72-27.04,4.88-3.12,3.6-3.84,7.76-3.84,22.32C5.36-12.08,6.08-8,9.2-4.32,12.8-.16,16.56.56,36.24.56,56,.56,59.76-.16,63.36-4.32c3.12-3.6,3.84-7.84,3.84-21.84,0-15.2-.64-19.2-3.84-22.88C59.76-53.2,56-53.92,36.24-53.92ZM34.4-48.48c18.8,0,21.44.4,23.92,3.36,2.08,2.48,2.56,5.84,2.56,18.64,0,12.32-.48,15.84-2.56,18.24C55.84-5.28,53.2-4.88,34.4-4.88c-13.92,0-17.92-.64-20.16-3.36-2-2.48-2.56-6.24-2.56-18.48,0-12.16.56-15.92,2.56-18.4C16.48-47.84,20.48-48.48,34.4-48.48ZM86.56-33.6v-1.84c0-11.68,2.4-13.04,22.88-13.04,13.36,0,17.6.56,20.4,2.8,1.92,1.44,2.56,3.76,2.56,8.88,0,8-2.08,9.52-14.56,10.4L98.08-24.88C82.8-24.24,79.12-20,79.6-3.28V0h59.36V-5.44H86.08c.08-11.44,1.76-13.04,14.4-13.84l19.68-1.44c7.84-.56,10.8-1.2,13.36-2.8,3.76-2.4,5.36-6.48,5.36-13.76,0-6.72-1.44-10.56-4.8-13.12-3.6-2.72-9.04-3.52-24.72-3.52-10,0-16.16.48-19.84,1.44-4.8,1.36-7.52,4.24-8.64,9.2-.4,2-.56,4.08-.56,9.68Z" stroke="none"/>
    <path d="M 36.23999786376953 -53.92000198364258 C 16.63999938964844 -53.92000198364258 12.80000305175781 -53.20000076293945 9.199996948242188 -49.04000091552734 C 6.080001831054688 -45.44000244140625 5.360000610351562 -41.27999877929688 5.360000610351562 -26.72000122070312 C 5.360000610351562 -12.08000183105469 6.080001831054688 -8 9.199996948242188 -4.319999694824219 C 12.80000305175781 -0.1599998474121094 16.55999755859375 0.5600013732910156 36.23999786376953 0.5600013732910156 C 55.99999237060547 0.5600013732910156 59.75999450683594 -0.1599998474121094 63.35999298095703 -4.319999694824219 C 66.47999572753906 -7.920001983642578 67.19999694824219 -12.15999984741211 67.19999694824219 -26.15999984741211 C 67.19999694824219 -41.36000061035156 66.55999755859375 -45.36000061035156 63.35999298095703 -49.04000091552734 C 59.75999450683594 -53.20000076293945 55.99999237060547 -53.92000198364258 36.23999786376953 -53.92000198364258 M 34.39999389648438 -4.880001068115234 C 20.47999572753906 -4.880001068115234 16.47999572753906 -5.520000457763672 14.239990234375 -8.240001678466797 C 12.239990234375 -10.72000122070312 11.68000793457031 -14.47999954223633 11.68000793457031 -26.72000122070312 C 11.68000793457031 -38.88000106811523 12.239990234375 -42.63999938964844 14.239990234375 -45.11999893188477 C 16.47999572753906 -47.84000015258789 20.47999572753906 -48.47999954223633 34.39999389648438 -48.47999954223633 C 53.19999694824219 -48.47999954223633 55.83999633789062 -48.08000183105469 58.31999969482422 -45.11999893188477 C 60.39999389648438 -42.63999938964844 60.87999725341797 -39.27999877929688 60.87999725341797 -26.47999954223633 C 60.87999725341797 -14.15999984741211 60.39999389648438 -10.63999938964844 58.31999969482422 -8.240001678466797 C 55.83999633789062 -5.279998779296875 53.19999694824219 -4.880001068115234 34.39999389648438 -4.880001068115234 M 109.3600006103516 -53.92000198364258 C 99.36000061035156 -53.92000198364258 93.19999694824219 -53.43999862670898 89.51999664306641 -52.47999954223633 C 84.72000122070312 -51.11999893188477 82 -48.2400016784668 80.87999725341797 -43.27999877929688 C 80.47999572753906 -41.27999877929688 80.31999206542969 -39.20000076293945 80.31999206542969 -33.59999847412109 L 86.55999755859375 -33.59999847412109 L 86.55999755859375 -35.44000244140625 C 86.55999755859375 -47.11999893188477 88.95999145507812 -48.47999954223633 109.4399948120117 -48.47999954223633 C 122.7999954223633 -48.47999954223633 127.0399932861328 -47.91999816894531 129.8399963378906 -45.68000030517578 C 131.7599945068359 -44.2400016784668 132.3999938964844 -41.91999816894531 132.3999938964844 -36.80000305175781 C 132.3999938964844 -28.80000114440918 130.3199920654297 -27.28000068664551 117.8399963378906 -26.39999961853027 L 98.07999420166016 -24.88000106811523 C 82.79999542236328 -24.23999977111816 79.1199951171875 -20 79.59999847412109 -3.279998779296875 L 79.59999847412109 0 L 138.9599914550781 0 L 138.9599914550781 -5.439998626708984 L 86.07999420166016 -5.439998626708984 C 86.15999603271484 -16.88000106811523 87.83999633789062 -18.47999954223633 100.4799957275391 -19.27999877929688 L 120.1599960327148 -20.72000122070312 C 128 -21.27999877929688 130.9599914550781 -21.92000007629395 133.5199890136719 -23.52000045776367 C 137.2799987792969 -25.92000007629395 138.8799896240234 -30 138.8799896240234 -37.27999877929688 C 138.8799896240234 -44 137.4400024414062 -47.84000015258789 134.0800018310547 -50.40000152587891 C 130.4799957275391 -53.11999893188477 125.0399932861328 -53.92000198364258 109.3600006103516 -53.92000198364258 M 36.23999786376953 -55.42000198364258 C 45.67819976806641 -55.42000198364258 51.95808410644531 -55.27207183837891 56.12764739990234 -54.51592636108398 C 60.5499267578125 -53.71396255493164 62.60761260986328 -52.2016716003418 64.49424743652344 -50.02156448364258 C 66.38819885253906 -47.84352874755859 67.39285278320312 -45.5670166015625 67.95957946777344 -42.16659927368164 C 68.57408905029297 -38.47961807250977 68.69999694824219 -33.10123443603516 68.69999694824219 -26.15999984741211 C 68.69999694824219 -18.58792877197266 68.47621154785156 -14.21943664550781 67.92757415771484 -11.0816535949707 C 67.3392333984375 -7.716747283935547 66.34432220458984 -5.47314453125 64.49352264404297 -3.337600708007812 C 62.60761260986328 -1.158329010009766 60.5499267578125 0.3539619445800781 56.12764739990234 1.155925750732422 C 51.95808410644531 1.912071228027344 45.67819976806641 2.060001373291016 36.23999786376953 2.060001373291016 C 26.83795928955078 2.060001373291016 20.58099365234375 1.912055969238281 16.42166900634766 1.155799865722656 C 12.0076904296875 0.3532524108886719 9.951934814453125 -1.158836364746094 8.06573486328125 -3.338436126708984 L 8.055862426757812 -3.349964141845703 C 6.201934814453125 -5.536636352539062 5.209930419921875 -7.798038482666016 4.631759643554688 -11.15543746948242 C 4.076370239257812 -14.38052749633789 3.860000610351562 -18.74441909790039 3.860000610351562 -26.72000122070312 C 3.860000610351562 -34.66680145263672 4.076370239257812 -39.01947402954102 4.631759643554688 -42.24456405639648 C 5.21405029296875 -45.62594604492188 6.209152221679688 -47.87934494018555 8.06646728515625 -50.02239990234375 C 10.29071044921875 -52.59263610839844 12.56370544433594 -53.81072616577148 16.45233917236328 -54.51592636108398 C 20.62190246582031 -55.27207183837891 26.86514282226562 -55.42000198364258 36.23999786376953 -55.42000198364258 Z M 34.39999389648438 -6.380001068115234 C 53.16999816894531 -6.380001068115234 55.19235992431641 -6.842655181884766 57.17021179199219 -9.203327178955078 L 57.18647003173828 -9.222400665283203 C 57.94626617431641 -10.0991096496582 58.52750396728516 -11.22114562988281 58.89443206787109 -13.8475456237793 C 59.23932647705078 -16.31625366210938 59.37999725341797 -19.97612762451172 59.37999725341797 -26.47999954223633 C 59.37999725341797 -33.20523834228516 59.23923492431641 -36.9671630859375 58.89412689208984 -39.46467208862305 C 58.5321044921875 -42.08451080322266 57.94334411621094 -43.23485565185547 57.17070770263672 -44.15607452392578 C 55.19235992431641 -46.5173454284668 53.16999816894531 -46.97999954223633 34.39999389648438 -46.97999954223633 C 21.15763854980469 -46.97999954223633 17.24573516845703 -46.40261077880859 15.40298461914062 -44.17261505126953 C 14.51858520507812 -43.07320404052734 14.02362060546875 -41.67241287231445 13.69535827636719 -39.34087371826172 C 13.33413696289062 -36.77525329589844 13.18000793457031 -33.00078201293945 13.18000793457031 -26.72000122070312 C 13.18000793457031 -20.39941787719727 13.33415222167969 -16.60380172729492 13.69544982910156 -14.02838134765625 C 14.0234375 -11.6905632019043 14.51837158203125 -10.28707504272461 15.40298461914062 -9.187385559082031 C 17.24574279785156 -6.957389831542969 21.15763854980469 -6.380001068115234 34.39999389648438 -6.380001068115234 Z M 109.3600006103516 -55.42000198364258 C 117.6524658203125 -55.42000198364258 122.7672882080078 -55.19416427612305 126.4626846313477 -54.66483688354492 C 130.3209228515625 -54.11220169067383 132.8694305419922 -53.19465637207031 134.9842529296875 -51.5968017578125 L 134.9890747070312 -51.59314727783203 C 138.7677612304688 -48.71414566040039 140.3799896240234 -44.4335823059082 140.3799896240234 -37.27999877929688 C 140.3799896240234 -33.41961669921875 139.9310150146484 -30.3922176361084 139.0074157714844 -28.02481842041016 C 138.0350036621094 -25.53230857849121 136.5040283203125 -23.64518165588379 134.3270568847656 -22.25561904907227 L 134.3150024414062 -22.24800109863281 C 131.4833831787109 -20.47823715209961 128.3323974609375 -19.7999267578125 120.2668685913086 -19.22381973266602 L 100.5747375488281 -17.78300094604492 C 94.91548156738281 -17.42481994628906 91.30692291259766 -16.89847183227539 89.60890197753906 -15.26801681518555 C 88.85930633544922 -14.54827117919922 88.3656005859375 -13.51380157470703 88.05517578125 -12.01250839233398 C 87.79751586914062 -10.7664680480957 87.65576934814453 -9.203620910644531 87.60221099853516 -6.939998626708984 L 140.4599914550781 -6.939998626708984 L 140.4599914550781 1.5 L 78.09999847412109 1.5 L 78.09999847412109 -3.258571624755859 C 77.97112274169922 -7.777816772460938 78.14971923828125 -11.15793228149414 78.66183471679688 -13.8946533203125 C 79.23242950439453 -16.94381713867188 80.256103515625 -19.29627227783203 81.79135894775391 -21.08647155761719 C 83.34123229980469 -22.89374542236328 85.45263671875 -24.18123626708984 88.24620056152344 -25.02252769470215 C 90.73268127441406 -25.77135276794434 93.82962036132812 -26.20203971862793 97.9910888671875 -26.37759208679199 L 117.734489440918 -27.89629173278809 C 125.1419219970703 -28.41860008239746 127.5658874511719 -29.17476463317871 128.9264678955078 -30.14941787719727 C 130.3835601806641 -31.19318199157715 130.8999938964844 -32.93352508544922 130.8999938964844 -36.80000305175781 C 130.8999938964844 -41.99385452270508 130.1813354492188 -43.54899978637695 128.9400024414062 -44.47999954223633 L 128.9029541015625 -44.50868988037109 C 127.646125793457 -45.51416397094727 126.0510330200195 -46.07189178466797 123.3973236083984 -46.43376541137695 C 120.5520858764648 -46.82174682617188 116.5083770751953 -46.97999954223633 109.4399948120117 -46.97999954223633 C 99.73392486572266 -46.97999954223633 93.93045043945312 -46.67031097412109 91.06243133544922 -45.03661727905273 C 89.84890747070312 -44.34538269042969 89.13897705078125 -43.42634582519531 88.68858337402344 -41.96358108520508 C 88.24797821044922 -40.53267288208008 88.05999755859375 -38.58169174194336 88.05999755859375 -35.44000244140625 L 88.05999755859375 -32.09999847412109 L 78.81999969482422 -32.09999847412109 L 78.81999969482422 -33.59999847412109 C 78.81999969482422 -38.98634338378906 78.95764923095703 -41.31676483154297 79.40912628173828 -43.57418060302734 L 79.41683197021484 -43.61040115356445 C 80.04208374023438 -46.37940216064453 81.12493896484375 -48.5537109375 82.72726440429688 -50.25759887695312 C 84.32905578613281 -51.96091079711914 86.41721343994141 -53.15992736816406 89.111083984375 -53.92318344116211 L 89.141357421875 -53.93141937255859 C 93.03437805175781 -54.94699859619141 99.45899963378906 -55.42000198364258 109.3600006103516 -55.42000198364258 Z" stroke="none" fill="#000"/>
  </g>
</svg>
