<svg xmlns="http://www.w3.org/2000/svg" width="31.002" height="31.061" viewBox="0 0 31.002 31.061">
  <path id="phone" d="M31.111,23.755V28.13a2.916,2.916,0,0,1-3.179,2.916,28.856,28.856,0,0,1-12.584-4.476A28.433,28.433,0,0,1,6.6,17.821,28.856,28.856,0,0,1,2.124,5.179,2.916,2.916,0,0,1,5.025,2H9.4a2.916,2.916,0,0,1,2.916,2.508,18.722,18.722,0,0,0,1.021,4.1,2.916,2.916,0,0,1-.656,3.077l-1.852,1.852a23.33,23.33,0,0,0,8.749,8.749l1.852-1.852a2.916,2.916,0,0,1,3.077-.656A18.722,18.722,0,0,0,28.6,20.8a2.916,2.916,0,0,1,2.508,2.96Z" transform="translate(-1.111 -1)" fill="none" stroke="#f4c354" stroke-linecap="round" stroke-linejoin="round" stroke-width="2"/>
</svg>
